<?xml version="1.0" encoding="UTF-8"?>
<svg version="1.1" xmlns="http://www.w3.org/2000/svg" width="32" height="32">
<path d="M0 0 C2.87109375 1.52734375 2.87109375 1.52734375 5 3 C3.625 5.5 3.625 5.5 1 8 C-1.31640625 8.15625 -1.31640625 8.15625 -3.9375 8 C-7.89433083 7.80128176 -8.68983065 7.78908484 -12.125 10.125 C-14.35696906 13.54735256 -14.83328611 15.00022668 -14 19 C-11.50915752 22.36996335 -10.11411135 23.81810427 -5.9375 24.5 C-2.77961005 23.96248682 -1.32893595 23.14978703 1 21 C-1.31 20.67 -3.62 20.34 -6 20 C-6 17.69 -6 15.38 -6 13 C-0.72 13 4.56 13 10 13 C10.3878224 19.39906953 10.43198595 22.98485801 6 28 C2.18069828 31.62833663 -0.88279006 32.31000458 -6 32.5 C-12.6912538 32.25156236 -15.80134327 30.3143755 -20.375 25.5 C-22.77303575 20.33499991 -22.75381535 15.5997712 -22 10 C-17.57963345 0.47921051 -9.79580326 -1.46343763 0 0 Z " fill="#508DF7" transform="translate(22,0)"/>
<path d="M0 0 C2.87109375 1.52734375 2.87109375 1.52734375 5 3 C3.625 5.5 3.625 5.5 1 8 C-1.31640625 8.15625 -1.31640625 8.15625 -3.9375 8 C-7.83709367 7.81019677 -8.67867737 7.78359905 -12.0625 10.0625 C-14.25788394 12.91725601 -14.25788394 12.91725601 -14.4375 16.5625 C-15 20 -15 20 -18.0625 22.4375 C-19.031875 22.953125 -20.00125 23.46875 -21 24 C-23.09305576 19.81388848 -22.42364608 14.55867052 -22 10 C-17.57963345 0.47921051 -9.79580326 -1.46343763 0 0 Z " fill="#F14335" transform="translate(22,0)"/>
<path d="M0 0 C0.825 0.825 1.65 1.65 2.5 2.5 C5.12973385 4.7318545 6.62775407 5.27757897 10.0625 5.0625 C14 5 14 5 17 6.875 C19 9 19 9 19 11 C14.0122265 13.98311812 8.63295468 13.6325778 3 13 C-0.31457593 11.65898836 -2.48166106 9.51833894 -5 7 C-4.875 5.0625 -4.875 5.0625 -4 3 C-1.9375 1.25 -1.9375 1.25 0 0 Z " fill="#29B346" transform="translate(7,19)"/>
<path d="M0 0 C5.78461538 3.97692308 5.78461538 3.97692308 6.75 8.5625 C6 12 6 12 3 14.4375 C1.515 15.2109375 1.515 15.2109375 0 16 C-1.36538938 13.26922124 -1.13231826 11.04439633 -1.125 8 C-1.12757812 6.9275 -1.13015625 5.855 -1.1328125 4.75 C-1 2 -1 2 0 0 Z " fill="#F9B901" transform="translate(1,8)"/>
</svg>
