<svg width="25" height="30" viewBox="0 0 25 30" fill="none" xmlns="http://www.w3.org/2000/svg">
<path d="M21.0554 2.47985C19.7041 0.939628 17.2614 0.279297 14.1364 0.279297H5.06696C4.75777 0.279308 4.45873 0.389615 4.2236 0.590384C3.98847 0.791153 3.83267 1.06922 3.78421 1.37458L0.00784661 25.3252C-0.0672153 25.7975 0.298493 26.2252 0.777182 26.2252H6.37637L7.78257 17.3059L7.73893 17.5852C7.83911 16.9548 8.37831 16.4898 9.01682 16.4898H11.6775C16.9045 16.4898 20.9973 14.3667 22.1929 8.22509C22.2284 8.04345 22.2591 7.86666 22.2857 7.69394C22.1348 7.61402 22.1348 7.61402 22.2857 7.69394C22.6417 5.42394 22.2833 3.87878 21.0554 2.47985Z" fill="#27346A"/>
<path d="M9.92503 6.87621C10.0781 6.80332 10.2455 6.76555 10.4151 6.76565H17.5254C18.3674 6.76565 19.1527 6.82044 19.8703 6.93595C20.0712 6.96797 20.2709 7.00619 20.4694 7.05058C20.7507 7.11264 21.0287 7.18861 21.3024 7.27819C21.6552 7.39602 21.9838 7.53324 22.2858 7.69394C22.6417 5.42307 22.2833 3.87878 21.0554 2.47985C19.7033 0.939628 17.2614 0.279297 14.1364 0.279297H5.06618C4.42757 0.279297 3.8843 0.744215 3.78421 1.37458L0.00784714 25.3244C-0.0672147 25.7974 0.298494 26.2245 0.776407 26.2245H6.37637L9.29379 7.7238C9.32248 7.54196 9.39492 7.3698 9.50488 7.22216C9.61484 7.07451 9.75902 6.95578 9.92503 6.87621Z" fill="#E0D03C"/>
<path d="M22.1927 8.22476C20.9972 14.3655 16.9045 16.4894 11.6774 16.4894H9.01589C8.37738 16.4894 7.83808 16.9544 7.73887 17.5849L5.98946 28.6749C5.9241 29.0883 6.24374 29.4628 6.66192 29.4628H11.3819C11.6523 29.4627 11.9137 29.3662 12.1193 29.1906C12.3249 29.0149 12.461 28.7717 12.5033 28.5047L12.5492 28.2641L13.4388 22.6262L13.4961 22.3146C13.5384 22.0475 13.6745 21.8043 13.8801 21.6287C14.0856 21.4531 14.347 21.3565 14.6174 21.3564H15.3238C19.8961 21.3564 23.4763 19.4989 24.5225 14.1266C24.9592 11.8816 24.7332 10.0071 23.578 8.69055C23.2276 8.29177 22.7925 7.96243 22.2855 7.6936C22.2581 7.8672 22.2283 8.04312 22.1927 8.22476Z" fill="#2790C3"/>
<path d="M21.0345 7.19515C20.8481 7.14071 20.6599 7.09252 20.4703 7.05065C20.2717 7.00699 20.072 6.96903 19.8713 6.9368C19.1528 6.82052 18.3681 6.76563 17.5253 6.76563H10.4159C10.2462 6.76524 10.0787 6.80334 9.92585 6.87706C9.75966 6.95639 9.61531 7.07504 9.5053 7.22273C9.39529 7.37042 9.32294 7.5427 9.29452 7.72465L7.78339 17.306L7.73975 17.5853C7.83915 16.9548 8.37835 16.4898 9.01696 16.4898H11.6785C16.9054 16.4898 20.9982 14.3668 22.1937 8.22516C22.2293 8.04352 22.2592 7.86751 22.2866 7.69401C21.9839 7.53419 21.6562 7.39609 21.3033 7.27904C21.2142 7.24951 21.1246 7.22155 21.0346 7.19515" fill="#1F264F"/>
</svg>
